<?xml version="1.0" standalone="no"?><!DOCTYPE svg PUBLIC "-//W3C//DTD SVG 1.1//EN" "http://www.w3.org/Graphics/SVG/1.1/DTD/svg11.dtd"><svg t="1539152402209" class="icon" style="" viewBox="0 0 1024 1024" version="1.1" xmlns="http://www.w3.org/2000/svg" p-id="2839" xmlns:xlink="http://www.w3.org/1999/xlink" width="200" height="200"><defs><style type="text/css"></style></defs><path d="M877.847 657.219v253.977q6.343 6.343-6.343 50.775-19.041 38.102-95.243 50.775h-133.335v-273.030q0-57.14-31.741-95.243-44.443-38.106-101.593-38.106-57.14 0-95.248 38.106-38.102 38.102-38.102 95.243v273.030q-57.14 0-95.243 0t-38.102 0q-12.695 0-50.775-12.695-44.447-12.695-50.805-88.891v-253.977q0-50.805 31.741-82.544l31.751-31.741 234.932-203.175q0-6.343 44.443-25.399 44.443-25.399 88.891 25.399 44.443 31.741 133.335 107.939 95.243 82.535 101.593 95.243 12.695 0 38.102 31.741 31.741 31.741 31.741 82.544zM979.425 384.193q38.102 50.775 31.741 101.593-6.343 44.443-101.598 57.14-19.041-19.041-165.075-158.736-152.387-133.335-203.175-177.778-25.399-25.399-44.443-12.695-19.041 12.695-19.041 12.695l-368.27 336.51q-95.243-12.695-101.593-57.14-12.695-50.775 38.102-101.593l368.258-336.524q44.447-44.443 98.417-44.443t98.412 44.443l368.27 336.524z" p-id="2840"></path></svg>