<?xml version="1.0" standalone="no"?><!DOCTYPE svg PUBLIC "-//W3C//DTD SVG 1.1//EN" "http://www.w3.org/Graphics/SVG/1.1/DTD/svg11.dtd"><svg t="1533262694307" class="icon" style="" viewBox="0 0 1024 1024" version="1.1" xmlns="http://www.w3.org/2000/svg" p-id="2504" xmlns:xlink="http://www.w3.org/1999/xlink" width="200" height="200"><defs><style type="text/css"></style></defs><path d="M960 576.7 960 445.3l-115.6-23.5c-7.9-29.3-19.5-57.1-34.3-82.7l65.2-98.4-93-92.9L684 212.9c-25.7-14.8-53.5-26.5-82.8-34.3L577.7 63 446.3 63l-23.5 115.6c-29.3 7.8-57.1 19.5-82.8 34.3l-98.4-65.2-92.9 92.9 65.2 98.4c-14.8 25.7-26.4 53.5-34.3 82.8L64 445.3l0 131.4 115.6 23.5c7.9 29.3 19.5 57.1 34.3 82.8l-65.2 98.4 92.9 92.9 98.4-65.2c25.7 14.8 53.5 26.5 82.8 34.3L446.3 959l131.4 0 23.5-115.6c29.3-7.8 57.1-19.5 82.8-34.3l98.3 65.2 93-92.9L810.1 683c14.9-25.7 26.5-53.5 34.3-82.8L960 576.7zM512 703c-106 0-192-86-192-192 0-106.1 86-192 192-192 106.1 0 192 86 192 192C704 617 618.1 703 512 703z" p-id="2505"></path></svg>