<?xml version="1.0" standalone="no"?><!DOCTYPE svg PUBLIC "-//W3C//DTD SVG 1.1//EN" "http://www.w3.org/Graphics/SVG/1.1/DTD/svg11.dtd"><svg t="1540868522056" class="icon" style="" viewBox="0 0 1335 1024" version="1.1" xmlns="http://www.w3.org/2000/svg" p-id="3525" xmlns:xlink="http://www.w3.org/1999/xlink" width="260.7421875" height="200"><defs><style type="text/css"></style></defs><path d="M1150.619826 68.162783a85.926957 85.926957 0 0 1 63.309913-29.206261 90.290087 90.290087 0 0 1 95.276522 88.33113 90.290087 90.290087 0 0 1-23.641044 66.114783l-723.47826 780.510608c-29.696 32.50087-66.56 48.929391-110.592 49.419131-44.076522 0.445217-81.875478-15.137391-113.39687-46.614261l-286.630957-288.055652a92.694261 92.694261 0 0 1-26.401391-66.070261c0-25.510957 8.770783-47.059478 26.401391-64.690087a92.694261 92.694261 0 0 1 66.114783-26.445913c25.510957 0 47.059478 8.815304 64.690087 26.445913l265.705739 267.130435 702.642087-756.869565z" p-id="3526"></path></svg>